# xmcd CD database file
#
# Track frame offsets:
#	150
#	39102
#	61905
#	93702
#	135035
#	169955
#	198340
#	240707
#	268340
#
# Disc length: 4236 seconds
#
# Revision: 0
# Processed by: cddbd v1.5.1PL0 Copyright (c) Steve Scherf et al.
# Submitted via: CDex 1.51
#
DISCID=76108a09
DTITLE=Various Artist - The Blue Note Years Disc 2
DYEAR=1990
DGENRE=Jazz
TTITLE0=The Champ
TTITLE1=It's All Right With Me
TTITLE2=Senor Blues
TTITLE3=Moment's Notice
TTITLE4=Old Devil Moon
TTITLE5=Little Messengers
TTITLE6=Cool Struttin'
TTITLE7=High And Flighty
TTITLE8=Autumn Leaves
EXTD=YEAR: 1990
EXTT0=
EXTT1=
EXTT2=
EXTT3=
EXTT4=
EXTT5=
EXTT6=
EXTT7=
EXTT8=
PLAYORDER=
